<svg xmlns="http://www.w3.org/2000/svg" version="1.1" xmlns:xlink="http://www.w3.org/1999/xlink" width="2000px" height="2000px"><svg width="2000px" height="2000px" version="1.1" xmlns="http://www.w3.org/2000/svg" xmlns:xlink="http://www.w3.org/1999/xlink" xml:space="preserve" xmlns:serif="http://www.serif.com/" style="fill-rule:evenodd;clip-rule:evenodd;stroke-linecap:round;stroke-linejoin:round;"><rect id="SvgjsRect1007" x="0" y="0" width="2000" height="2000" style="fill:none;"></rect><g id="SvgjsG1006" serif:id="Artboard1"><circle cx="1000" cy="1000" r="1000" style="fill:#09090b;"></circle><g><path d="M1565,437L1565,1563C1565,1564.1 1564.1,1565 1563,1565L437,1565C435.896,1565 435,1564.1 435,1563L435,437C435,435.896 435.896,435 437,435L1563,435C1564.1,435 1565,435.896 1565,437Z" style="fill:none;stroke:#fff;stroke-width:125.56px;"></path><path d="M435,811.667L1565,811.667" style="fill:none;fill-rule:nonzero;stroke:#fff;stroke-width:125.56px;"></path><path d="M435,1188.33L1565,1188.33" style="fill:none;fill-rule:nonzero;stroke:#fff;stroke-width:125.56px;"></path><path d="M811.667,435L811.667,1565" style="fill:none;fill-rule:nonzero;stroke:#fff;stroke-width:125.56px;"></path><path d="M1188.33,435L1188.33,1565" style="fill:none;fill-rule:nonzero;stroke:#fff;stroke-width:125.56px;"></path></g></g></svg><style>@media (prefers-color-scheme: light) { :root { filter: none; } }
@media (prefers-color-scheme: dark) { :root { filter: invert(100%); } }
</style></svg>